<svg xmlns="http://www.w3.org/2000/svg" xmlns:xlink="http://www.w3.org/1999/xlink" version="1.1" width="1000" height="1000" viewBox="0 0 1000 1000" xml:space="preserve">
<desc>Created with Fabric.js 3.5.0</desc>
<defs>
</defs>
<rect x="0" y="0" width="100%" height="100%" fill="#ffffff"/>
<g transform="matrix(1 0 0 1 500 500)" id="432518">
<g style="">
		<g transform="matrix(4.6123 0 0 4.6123 137.4601 -0.0002)" id="Layer_1" clip-path="url(#CLIPPATH_1)">
<clipPath id="CLIPPATH_1">
	<rect transform="matrix(1 0 0 1 -115.6192 -23.1469)" id="clip-path" x="-392.495" y="-277.52" rx="0" ry="0" width="784.99" height="555.04"/>
</clipPath>
<path style="stroke: none; stroke-width: 1; stroke-dasharray: none; stroke-linecap: butt; stroke-dashoffset: 0; stroke-linejoin: miter; stroke-miterlimit: 4; is-custom-font: none; font-file-url: none; fill: rgb(84,90,190); fill-rule: nonzero; opacity: 1;" transform=" translate(-382.1242, -275.9369)" d="M 437.37 281.7 a 4.08 4.08 0 0 1 -1.11 -2.93 a 4 4 0 0 1 1.11 -2.89 a 4.1 4.1 0 0 1 5.67 0 a 3.87 3.87 0 0 1 1.15 2.9 A 4 4 0 0 1 443 281.7 a 4.18 4.18 0 0 1 -5.67 0 m 3.52 -10.48 a 5.49 5.49 0 0 0 -4.63 2.09 v -7.42 h -3.7 v 20 h 3.7 v -1.69 a 5.48 5.48 0 0 0 4.63 2.09 a 6.47 6.47 0 0 0 4.93 -2.17 a 8 8 0 0 0 0 -10.74 a 6.5 6.5 0 0 0 -4.93 -2.2 M 419 281.61 a 4.26 4.26 0 0 1 0 -5.67 a 3.74 3.74 0 0 1 2.78 -1.11 a 3.78 3.78 0 0 1 2.78 1.11 a 4.18 4.18 0 0 1 0 5.67 a 4 4 0 0 1 -5.56 0 m 8.16 2.55 a 7.36 7.36 0 0 0 2.21 -5.39 a 7.48 7.48 0 1 0 -2.21 5.39 M 404 286.33 a 7.31 7.31 0 0 0 5.06 -1.74 a 6.23 6.23 0 0 0 2 -4.9 v -13.8 h -3.92 v 13.8 c 0 1.72 -1 2.78 -3.12 2.78 a 3.3 3.3 0 0 1 -3.21 -1.89 l -3.41 1.94 c 1.26 2.55 3.47 3.81 6.62 3.81 M 387.22 269 v -3.12 H 374.05 v 3.78 h 8.13 l -8.33 13.11 v 3.15 h 13.54 v -3.78 h -8.5 Z m -21.84 2.21 a 4.73 4.73 0 0 0 -4.27 2 v -1.6 h -3.69 v 14.31 h 3.69 V 278.2 c 0 -2.37 1.23 -3.55 3.15 -3.55 a 2.65 2.65 0 0 1 2.84 3 v 8.33 h 3.69 v -8.79 a 6 6 0 0 0 -1.55 -4.35 a 5.06 5.06 0 0 0 -3.86 -1.57 m -22.1 6.21 a 3.57 3.57 0 0 1 3.75 -2.89 a 3.46 3.46 0 0 1 3.55 2.89 Z m 10.85 2.86 a 10.35 10.35 0 0 0 0.14 -1.52 a 7.51 7.51 0 0 0 -2.06 -5.38 a 6.73 6.73 0 0 0 -5.18 -2.17 a 7.22 7.22 0 0 0 -5.44 2.17 a 7.42 7.42 0 0 0 -2.12 5.38 a 7.33 7.33 0 0 0 2.15 5.41 a 7.65 7.65 0 0 0 5.7 2.15 a 7.13 7.13 0 0 0 6.24 -3.06 l -3 -1.72 a 3.79 3.79 0 0 1 -3.21 1.43 c -2.2 0 -3.55 -0.89 -4 -2.69 Z M 327 275.17 v 3.49 H 333 c -0.71 2.38 -2.77 3.81 -5.84 3.81 a 6.78 6.78 0 0 1 -5 -1.84 a 6.58 6.58 0 0 1 4.7 -11.3 a 6.19 6.19 0 0 1 5.38 2.77 l 3.38 -1.94 a 10.49 10.49 0 1 0 -16.21 13.17 a 10.56 10.56 0 0 0 7.7 3 a 9.81 9.81 0 0 0 7.1 -2.66 a 9.23 9.23 0 0 0 2.75 -7 v -1.54 Z" stroke-linecap="round"/>
</g>
		<g transform="matrix(0.5057 0 0 0.5057 -338.6558 -0.0076)" id="219555">
<g style="">
		<g transform="matrix(6.9159 0 0 6.9159 155.9695 157.201)" id="Layer_1" clip-path="url(#CLIPPATH_2)">
<clipPath id="CLIPPATH_2">
	<rect transform="matrix(1 0 0 1 -138.2358 9.929)" id="clip-path" x="-392.495" y="-277.52" rx="0" ry="0" width="784.99" height="555.04"/>
</clipPath>
<path style="stroke: none; stroke-width: 1; stroke-dasharray: none; stroke-linecap: butt; stroke-dashoffset: 0; stroke-linejoin: miter; stroke-miterlimit: 4; is-custom-font: none; font-file-url: none; fill: rgb(255,112,112); fill-rule: nonzero; opacity: 1;" transform=" translate(-404.7408, -242.861)" d="M 407.74 235.52 L 398 248.61 l 0.33 0.24 a 8.24 8.24 0 0 0 11.22 -2.09 c 2.36 -3.38 3.37 -8.31 -1.8 -11.24" stroke-linecap="round"/>
</g>
		<g transform="matrix(6.9159 0 0 6.9159 -23.5822 -9.4707)" id="Layer_1" clip-path="url(#CLIPPATH_3)">
<clipPath id="CLIPPATH_3">
	<rect transform="matrix(1 0 0 1 -112.2737 34.0288)" id="clip-path" x="-392.495" y="-277.52" rx="0" ry="0" width="784.99" height="555.04"/>
</clipPath>
<path style="stroke: none; stroke-width: 1; stroke-dasharray: none; stroke-linecap: butt; stroke-dashoffset: 0; stroke-linejoin: miter; stroke-miterlimit: 4; is-custom-font: none; font-file-url: none; fill: rgb(84,89,191); fill-rule: nonzero; opacity: 1;" transform=" translate(-378.7787, -218.7612)" d="M 367.22 222.34 a 19 19 0 0 1 20.67 -18.91 a 38 38 0 0 1 8.92 1.86 a 2.2 2.2 0 0 0 2.54 -0.72 l 5 -7.18 a 2 2 0 0 0 -0.57 -2.77 h 0 c -13.66 -7.79 -34.31 -6.2 -45.07 9.32 s -5.91 33.92 8.63 43.05 l 0.26 0.16 a 2.1 2.1 0 0 0 2.83 -0.57 l 4.79 -7 c 0.73 -1.45 0.4 -2 -0.44 -2.67 a 18.27 18.27 0 0 1 -7.52 -14.59" stroke-linecap="round"/>
</g>
		<g transform="matrix(6.9159 0 0 6.9159 82.2505 83.8463)" id="Layer_1" clip-path="url(#CLIPPATH_4)">
<clipPath id="CLIPPATH_4">
	<rect transform="matrix(1 0 0 1 -127.5765 20.5357)" id="clip-path" x="-392.495" y="-277.52" rx="0" ry="0" width="784.99" height="555.04"/>
</clipPath>
<path style="stroke: none; stroke-width: 1; stroke-dasharray: none; stroke-linecap: butt; stroke-dashoffset: 0; stroke-linejoin: miter; stroke-miterlimit: 4; is-custom-font: none; font-file-url: none; fill: rgb(255,112,112); fill-rule: nonzero; opacity: 1;" transform=" translate(-394.0815, -232.2543)" d="M 377.07 247 a 2 2 0 0 0 1.78 3.2 h 8 a 2.23 2.23 0 0 0 1.82 -0.9 l 21.54 -28.67 c 2.26 -2.79 2 -6.33 -4.46 -6.33 h -18 a 2.26 2.26 0 0 0 -1.73 0.78 l -7.54 9 a 1.92 1.92 0 0 0 -0.46 1.24 v 0.23 a 2.26 2.26 0 0 0 2.34 2.16 h 7 c 4.27 -0.09 1.74 3.17 0.8 4.52 Z" stroke-linecap="round"/>
</g>
</g>
</g>
</g>
</g>
</svg>