<svg id="Layer_1" data-name="Layer 1" xmlns="http://www.w3.org/2000/svg" xmlns:xlink="http://www.w3.org/1999/xlink" viewBox="0 0 131.45 96.28"><defs><style>.cls-1{fill:none;}.cls-2{clip-path:url(#clip-path);}.cls-3{fill:#ff7070;}.cls-4{fill:#5459bf;}.cls-5{fill:#545abe;}</style><clipPath id="clip-path" transform="translate(-316.43 -190.05)"><rect class="cls-1" x="-125.99" y="-24.73" width="784.99" height="555.04"/></clipPath></defs><g class="cls-2"><path class="cls-3" d="M407.74,235.52,398,248.61l.33.24a8.24,8.24,0,0,0,11.22-2.09c2.36-3.38,3.37-8.31-1.8-11.24" transform="translate(-316.43 -190.05)"/></g><g class="cls-2"><path class="cls-4" d="M367.22,222.34a19,19,0,0,1,20.67-18.91,38,38,0,0,1,8.92,1.86,2.2,2.2,0,0,0,2.54-.72l5-7.18a2,2,0,0,0-.57-2.77h0c-13.66-7.79-34.31-6.2-45.07,9.32s-5.91,33.92,8.63,43.05l.26.16a2.1,2.1,0,0,0,2.83-.57l4.79-7c.73-1.45.4-2-.44-2.67a18.27,18.27,0,0,1-7.52-14.59" transform="translate(-316.43 -190.05)"/></g><g class="cls-2"><path class="cls-3" d="M377.07,247a2,2,0,0,0,1.78,3.2h8a2.23,2.23,0,0,0,1.82-.9l21.54-28.67c2.26-2.79,2-6.33-4.46-6.33h-18a2.26,2.26,0,0,0-1.73.78l-7.54,9a1.92,1.92,0,0,0-.46,1.24v.23a2.26,2.26,0,0,0,2.34,2.16h7c4.27-.09,1.74,3.17.8,4.52Z" transform="translate(-316.43 -190.05)"/></g><g class="cls-2"><path class="cls-5" d="M437.37,281.7a4.08,4.08,0,0,1-1.11-2.93,4,4,0,0,1,1.11-2.89,4.1,4.1,0,0,1,5.67,0,3.87,3.87,0,0,1,1.15,2.9A4,4,0,0,1,443,281.7a4.18,4.18,0,0,1-5.67,0m3.52-10.48a5.49,5.49,0,0,0-4.63,2.09v-7.42h-3.7v20h3.7v-1.69a5.48,5.48,0,0,0,4.63,2.09,6.47,6.47,0,0,0,4.93-2.17,8,8,0,0,0,0-10.74,6.5,6.5,0,0,0-4.93-2.2M419,281.61a4.26,4.26,0,0,1,0-5.67,3.74,3.74,0,0,1,2.78-1.11,3.78,3.78,0,0,1,2.78,1.11,4.18,4.18,0,0,1,0,5.67,4,4,0,0,1-5.56,0m8.16,2.55a7.36,7.36,0,0,0,2.21-5.39,7.48,7.48,0,1,0-2.21,5.39M404,286.33a7.31,7.31,0,0,0,5.06-1.74,6.23,6.23,0,0,0,2-4.9v-13.8h-3.92v13.8c0,1.72-1,2.78-3.12,2.78a3.3,3.3,0,0,1-3.21-1.89l-3.41,1.94c1.26,2.55,3.47,3.81,6.62,3.81M387.22,269v-3.12H374.05v3.78h8.13l-8.33,13.11v3.15h13.54v-3.78h-8.5Zm-21.84,2.21a4.73,4.73,0,0,0-4.27,2v-1.6h-3.69v14.31h3.69V278.2c0-2.37,1.23-3.55,3.15-3.55a2.65,2.65,0,0,1,2.84,3v8.33h3.69v-8.79a6,6,0,0,0-1.55-4.35,5.06,5.06,0,0,0-3.86-1.57m-22.1,6.21a3.57,3.57,0,0,1,3.75-2.89,3.46,3.46,0,0,1,3.55,2.89Zm10.85,2.86a10.35,10.35,0,0,0,.14-1.52,7.51,7.51,0,0,0-2.06-5.38,6.73,6.73,0,0,0-5.18-2.17,7.22,7.22,0,0,0-5.44,2.17,7.42,7.42,0,0,0-2.12,5.38,7.33,7.33,0,0,0,2.15,5.41,7.65,7.65,0,0,0,5.7,2.15,7.13,7.13,0,0,0,6.24-3.06l-3-1.72a3.79,3.79,0,0,1-3.21,1.43c-2.2,0-3.55-.89-4-2.69ZM327,275.17v3.49H333c-.71,2.38-2.77,3.81-5.84,3.81a6.78,6.78,0,0,1-5-1.84,6.58,6.58,0,0,1,4.7-11.3,6.19,6.19,0,0,1,5.38,2.77l3.38-1.94a10.49,10.49,0,1,0-16.21,13.17,10.56,10.56,0,0,0,7.7,3,9.81,9.81,0,0,0,7.1-2.66,9.23,9.23,0,0,0,2.75-7v-1.54Z" transform="translate(-316.43 -190.05)"/></g></svg>